# xmcd
#
# Track frame offsets:
# 150
# 13429
# 26378
# 38904
# 50951
# 65352
# 80417
# 94744
# 108015
# 122012
# 136417
# 148691
# 162975
# 177504
# 190514
# 202330
# 216009
# 229630
# 242704
# 256275
#
# Disc length: 3586 seconds
#
#
# Revision: 0
# Processed by: cddbd v1.4PL0 Copyright (c) Steve Scherf et al.
# Submitted via: FreeRIP 2.40 
#
DISCID=1f0e0014
DTITLE=Billie Holiday - Triple Gold [CDTwo)
DYEAR=1997
DGENRE=Blues
TTITLE0=Summertime
TTITLE1=Falling In Love Again (Can't Help It)
TTITLE2=You're A Lucky Guy
TTITLE3=Ghost of Yesterday
TTITLE4=I'm Pulling Through
TTITLE5=These Foolish Things
TTITLE6=Tell Me More and More, And Then Some
TTITLE7=Laughing At Life
TTITLE8=Time On My Hands
TTITLE9=I'm All For You
TTITLE10=I Hear Music
TTITLE11=I'm In A Low Down Groove
TTITLE12=It's The Same Old Story
TTITLE13=A Fine Romance
TTITLE14=Practice Makes Perfect
TTITLE15=Where Ever You Are
TTITLE16=Mandy Is Two
TTITLE17=You're So Desirable
TTITLE18=You're Gonna See A Lot of Me
TTITLE19=Them There Eyes
EXTD=
EXTT0=
EXTT1=
EXTT2=
EXTT3=
EXTT4=
EXTT5=
EXTT6=
EXTT7=
EXTT8=
EXTT9=
EXTT10=
EXTT11=
EXTT12=
EXTT13=
EXTT14=
EXTT15=
EXTT16=
EXTT17=
EXTT18=
EXTT19=
PLAYORDER=
